<?xml version="1.0" encoding="UTF-8"?>
<svg xmlns="http://www.w3.org/2000/svg" width="1024" height="1024" viewBox="0 0 1254 1254" role="img" aria-labelledby="title desc">
  <title id="title">4dl simplified soccer ball icon, image matched</title>
  <desc id="desc">A black and white soccer ball favicon with a stylized number 4 and down arrow, vectorized to closely match the approved simplified reference image.</desc>
  <circle cx="628" cy="608.5" r="501.5" fill="#ffffff"/>
  <path fill="#000000" fill-rule="evenodd" d="
      M 622 103 L 575 106 L 521 115 L 462 132 L 423 148 L 375 173 L 336 199 L 300 228 L 263 264 L 230 303 L 201 345 L 184 374 L 156 435 L 141 481 L 130 529 L 124 578 L 123 630 L 126 674 L 133 716 L 146 764 L 165 814 L 188 858 L 214 898 L 243 935 L 280 974 L 316 1005 L 360 1036 L 391 1054 L 450 1081 L 499 1097 L 539 1106 L 595 1113 L 641 1114 L 700 1109 L 742 1101 L 782 1090 L 836 1069 L 881 1046 L 923 1019 L 962 988 L 998 953 L 1028 918 L 1059 874 L 1080 837 L 1101 790 L 1117 740 L 1125 705 L 1131 660 L 1133 612 L 1130 561 L 1123 516 L 1111 469 L 1091 414 L 1065 362 L 1034 313 L 1002 273 L 967 237 L 933 208 L 887 176 L 839 150 L 801 134 L 754 119 L 717 111 L 674 105 Z
      M 275 710 L 367 680 L 381 678 L 443 747 L 499 803 L 551 849 L 616 899 L 615 985 L 506 1040 L 473 1054 L 409 1026 L 380 1009 L 338 979 L 282 926 L 259 898 L 242 871 L 270 719 Z
      M 981 710 L 985 715 L 1014 872 L 975 926 L 922 977 L 861 1019 L 817 1041 L 783 1054 L 641 985 L 641 898 L 703 851 L 757 804 L 814 747 L 875 678 L 879 677 Z
      M 401 280 L 494 371 L 494 375 L 462 439 L 429 514 L 401 587 L 381 649 L 266 687 L 161 571 L 164 536 L 177 481 L 193 436 L 216 388 L 241 348 L 259 325 L 363 290 Z
      M 855 280 L 994 323 L 1012 344 L 1040 389 L 1062 435 L 1077 476 L 1091 532 L 1095 570 L 990 687 L 881 653 L 875 649 L 830 521 L 797 445 L 762 374 L 763 370 Z
      M 419 260 L 459 182 L 470 166 L 516 151 L 565 141 L 602 137 L 653 137 L 724 147 L 767 159 L 788 168 L 833 252 L 836 264 L 741 357 L 515 357 L 420 264 Z
      M 639 428 L 679 428 L 688 435 L 690 440 L 690 622 L 730 623 L 735 625 L 741 633 L 741 661 L 736 668 L 692 670 L 690 672 L 690 704 L 692 706 L 720 706 L 726 712 L 726 720 L 669 793 L 661 799 L 651 799 L 644 794 L 588 719 L 589 711 L 595 706 L 626 706 L 629 704 L 629 672 L 627 670 L 499 670 L 492 667 L 486 657 L 486 628 L 493 614 L 628 436 Z
      M 629 520 L 622 527 L 551 620 L 551 623 L 628 623 Z
  "/>
</svg>
