<?xml version="1.0" encoding="UTF-8"?>
<svg xmlns="http://www.w3.org/2000/svg" width="1024" height="1024" viewBox="78 78 868 868" role="img" aria-labelledby="title desc">
  <title id="title">4dl soccer ball logo black and white transparent</title>
  <desc id="desc">Black-and-white transparent-background vector SVG recreation of the 4dl-style number-four-and-down-arrow mark on a soccer ball.</desc>
  <ellipse cx="512" cy="512" rx="414" ry="414" fill="#ffffff"/>
  <path fill="#000000" fill-rule="evenodd" d="
      M 494.04 78.39 L 454.84 82.48 L 417.28 89.82 L 378.90 101.26 L 348.68 113.51 L 309.49 133.92 L 281.72 151.89 L 251.51 175.57 L 220.48 205.78 L 193.53 238.44 L 171.48 271.11 L 146.17 318.47 L 132.29 352.77 L 121.67 387.06 L 112.69 430.34 L 108.61 469.54 L 108.61 511.18 L 112.69 551.20 L 119.22 583.86 L 131.47 624.69 L 145.35 658.99 L 162.50 691.65 L 184.55 725.13 L 210.68 756.98 L 242.53 788.82 L 276.01 815.77 L 312.75 839.45 L 346.23 856.60 L 376.45 868.85 L 405.03 877.83 L 449.12 887.63 L 482.60 891.71 L 528.33 892.53 L 571.61 888.45 L 605.91 881.91 L 652.45 868.03 L 682.67 855.78 L 711.25 841.08 L 744.73 819.85 L 781.47 790.46 L 811.69 760.24 L 838.63 726.76 L 860.68 692.47 L 877.83 659.80 L 891.71 626.32 L 901.51 595.29 L 911.31 547.93 L 914.58 515.27 L 914.58 466.27 L 910.49 427.89 L 900.70 381.35 L 888.45 342.97 L 871.30 302.95 L 855.78 274.37 L 834.55 241.71 L 808.42 209.05 L 778.21 178.83 L 750.44 155.97 L 717.78 133.92 L 679.40 113.51 L 646.74 100.44 L 604.27 88.19 L 574.06 82.48 L 534.86 78.39 Z
      M 328.27 692.47 L 398.49 629.59 L 458.11 640.20 L 517.72 643.47 L 574.06 639.39 L 627.14 629.59 L 695.73 691.65 L 695.73 694.10 L 650.82 790.46 L 647.55 793.72 L 583.86 819.85 L 512.00 841.90 L 443.41 820.67 L 375.63 792.91 Z
      M 272.74 360.93 L 355.22 411.56 L 358.48 458.11 L 366.65 511.18 L 383.80 585.49 L 394.41 624.69 L 325.00 686.75 L 246.61 641.02 L 191.08 604.27 L 182.92 525.88 L 182.10 452.39 Z
      M 752.08 360.93 L 783.92 390.33 L 842.72 451.57 L 841.90 525.88 L 833.74 601.01 L 832.10 605.09 L 803.52 623.87 L 699.81 686.75 L 642.65 635.30 L 631.22 622.24 L 647.55 563.44 L 660.62 503.02 L 667.97 454.84 L 671.23 411.56 Z
      M 508.73 190.26 L 509.55 300.50 L 473.62 321.74 L 432.79 348.68 L 396.86 374.81 L 359.30 405.84 L 276.01 355.22 L 279.27 306.22 L 288.26 240.89 L 296.42 234.36 L 418.09 154.33 Z
      M 516.90 190.26 L 606.72 154.33 L 681.03 201.70 L 735.74 239.26 L 737.38 241.71 L 745.54 301.32 L 748.81 355.22 L 667.97 405.84 L 641.84 383.80 L 600.19 352.77 L 553.65 322.55 L 516.08 301.32 L 515.27 191.90 Z
      M 519.35 374.81 L 543.85 375.63 L 549.56 382.16 L 549.56 503.02 L 551.20 504.65 L 575.69 504.65 L 581.41 510.37 L 581.41 526.70 L 577.33 532.41 L 551.20 533.23 L 549.56 534.86 L 549.56 554.46 L 551.20 556.10 L 570.79 556.10 L 574.06 562.63 L 540.58 604.27 L 530.78 613.26 L 525.07 613.26 L 520.98 609.99 L 485.87 563.44 L 485.87 559.36 L 489.95 556.10 L 510.37 555.28 L 511.18 535.68 L 509.55 533.23 L 426.26 533.23 L 419.73 527.52 L 419.73 506.28 L 421.36 502.20 L 509.55 380.53 Z
      M 440.14 99.62 L 414.01 149.44 L 351.13 189.45 L 284.17 235.99 L 229.46 244.16 L 200.88 251.51 L 222.11 223.74 L 250.69 194.35 L 276.82 172.30 L 307.04 151.07 L 332.35 136.37 L 363.38 121.67 L 402.58 107.79 Z
      M 583.86 99.62 L 587.13 98.81 L 612.44 104.52 L 650.00 116.77 L 675.32 127.39 L 715.33 149.44 L 741.46 167.40 L 769.22 190.26 L 799.44 220.48 L 823.12 250.69 L 788.82 242.53 L 739.83 235.18 L 663.89 182.92 L 611.62 150.25 L 608.36 146.99 L 596.11 120.04 Z
      M 134.74 392.78 L 151.89 420.54 L 176.38 453.21 L 177.20 532.41 L 185.37 605.91 L 173.93 631.22 L 164.13 664.70 L 150.25 636.12 L 136.37 596.93 L 130.65 574.88 L 123.30 531.60 L 121.67 512.00 L 122.49 458.11 L 129.02 413.19 Z
      M 889.26 391.96 L 895.80 417.28 L 901.51 460.56 L 902.33 504.65 L 900.70 529.96 L 894.98 567.53 L 886.81 600.19 L 874.56 634.49 L 859.87 664.70 L 851.70 635.30 L 838.63 605.09 L 847.62 531.60 L 849.25 452.39 L 877.01 413.19 Z
      M 743.09 802.70 L 705.53 828.02 L 672.05 845.17 L 627.96 861.50 L 589.58 871.30 L 573.24 872.11 L 519.35 846.80 L 586.31 825.57 L 652.45 797.81 Z
      M 281.72 802.70 L 371.55 797.81 L 431.97 823.12 L 505.47 846.80 L 448.31 872.93 L 439.32 872.11 L 396.86 861.50 L 359.30 847.62 L 324.19 830.47 Z
      M 509.55 436.06 L 461.37 500.57 L 461.37 503.83 L 509.55 504.65 L 511.18 503.02 L 511.18 437.69 Z
  "/>
</svg>
